<svg xmlns="http://www.w3.org/2000/svg" xmlns:xlink="http://www.w3.org/1999/xlink" aria-hidden="true" role="img" class="iconify iconify--logos" width="35.93" height="32" preserveAspectRatio="xMidYMid meet" viewBox="0 0 256 228"><path fill="#00D8FF" d="M210.483 73.824a171.49 171.49 0 0 0-8.24-2.597c.465-1.9.893-3.777 1.273-5.621c6.238-30.281 2.16-54.676-11.769-62.708c-13.355-7.7-35.196.329-57.254 19.526a171.23 171.23 0 0 0-6.375 5.848a155.866 155.866 0 0 0-4.241-3.917C100.759 3.829 77.587-4.822 63.673 3.233C50.33 10.957 46.379 33.89 51.995 62.588a170.974 170.974 0 0 0 1.892 8.48c-3.28.932-6.445 1.924-9.474 2.98C17.309 83.498 0 98.307 0 113.668c0 15.865 18.582 31.778 46.812 41.427a145.52 145.52 0 0 0 6.921 2.165a167.467 167.467 0 0 0-2.01 9.138c-5.354 28.2-1.173 50.591 12.134 58.266c13.744 7.926 36.812-.22 59.273-19.855a145.567 145.567 0 0 0 5.342-4.923a168.064 168.064 0 0 0 6.92 6.314c21.758 18.722 43.246 26.282 56.54 18.586c13.731-7.949 18.194-32.003 12.4-61.268a145.016 145.016 0 0 0-1.535-6.842c1.62-.48 3.21-.974 4.76-1.488c29.348-9.723 48.443-25.443 48.443-41.52c0-15.417-17.868-30.326-45.517-39.844Zm-6.365 70.984c-1.4.463-2.836.91-4.3 1.345c-3.24-10.257-7.612-21.163-12.963-32.432c5.106-11 9.31-21.767 12.459-31.957c2.619.758 5.16 1.557 7.61 2.4c23.69 8.156 38.14 20.213 38.14 29.504c0 9.896-15.606 22.743-40.946 31.14Zm-10.514 20.834c2.562 12.94 2.927 24.64 1.23 33.787c-1.524 8.219-4.59 13.698-8.382 15.893c-8.067 4.67-25.32-1.4-43.927-17.412a156.211 156.211 0 0 1-6.437-5.87c7.214-7.889 14.423-17.06 21.459-27.246c12.376-1.098 24.068-2.894 34.671-5.345a134.17 134.17 0 0 1 1.386 6.193ZM87.276 214.515c-7.882 4.557-19.101 4.114-29.854-1.183c-9.674-4.743-16.995-13.293-19.993-23.873c-5.424-19.028-1.964-43.877 9.224-68.376a144.318 144.318 0 0 1 3.923-8.48c10.603 2.45 22.295 4.246 34.671 5.344c7.036 10.186 14.245 19.356 21.459 27.245a156.31 156.31 0 0 1-4.431 4.043c-9.933 8.957-19.886 15.643-29.609 19.979a132.47 132.47 0 0 1-6.381 2.303Zm-48.25-87.892c-2.562-12.94-2.927-24.64-1.23-33.787c1.524-8.219 4.59-13.698 8.382-15.893c8.067-4.67 25.32 1.4 43.927 17.412a156.211 156.211 0 0 1 6.437 5.87c-7.214 7.889-14.423 17.06-21.459 27.246c-12.376 1.098-24.068 2.894-34.671 5.345a134.17 134.17 0 0 1-1.386-6.193Zm13.881-72.792c8.067-4.67 25.32 1.4 43.927 17.412a156.211 156.211 0 0 1 6.437 5.87c-7.214 7.889-14.423 17.06-21.459 27.246c-12.376 1.098-24.068 2.894-34.671 5.345a144.318 144.318 0 0 1-3.923-8.48c-11.188-24.499-14.648-49.348-9.224-68.376c2.998-10.58 10.319-19.13 19.993-23.873c10.753-5.297 21.972-5.74 29.854-1.183c9.723 4.336 19.676 11.022 29.609 19.979a132.47 132.47 0 0 1 6.381-2.303Zm113.624-21.788c-2.619-.758-5.16-1.557-7.61-2.4c-23.69-8.156-38.14-20.213-38.14-29.504c0-9.896 15.606-22.743 40.946-31.14c1.4-.463 2.836-.91 4.3-1.345c3.24 10.257 7.612 21.163 12.963 32.432c-5.106 11-9.31 21.767-12.459 31.957Zm-22.466 19.742a347.8 347.8 0 0 0-7.785-12.803c-8.486 1.102-17.643 1.966-27.316 2.557a381.151 381.151 0 0 0-5.592-9.56c11.708-1.592 22.829-3.654 33.068-6.098a348.151 348.151 0 0 0 7.625 12.893zm-45.788-42.861c5.044 5.465 10.096 11.566 15.065 18.186a322.04 322.04 0 0 0-30.257-.006c4.974-6.559 10.069-12.652 15.192-18.18ZM82.802 87.83a323.167 323.167 0 0 0-5.246 9.12c-9.758-.545-19.048-1.376-27.69-2.459a321.524 321.524 0 0 0-7.887 12.976c10.364 2.398 21.586 4.444 33.403 6.017a321.186 321.186 0 0 0 5.42-9.326Zm-8.405 57.267c-5.044-5.465-10.096-11.566-15.065-18.186a322.04 322.04 0 0 0 30.257.006c-4.974 6.559-10.069 12.652-15.192 18.18Zm45.788 42.861c-5.044-5.465-10.096-11.566-15.065-18.186a322.04 322.04 0 0 0-30.257.006c4.974-6.559 10.069-12.652 15.192-18.18Zm22.466-19.742c-8.486-1.102-17.643-1.966-27.316-2.557a381.151 381.151 0 0 0-5.592-9.56c11.708-1.592 22.829-3.654 33.068-6.098a348.151 348.151 0 0 0 7.625 12.893ZM128 152.006c-12.983 0-23.5-10.518-23.5-23.5s10.517-23.5 23.5-23.5s23.5 10.518 23.5 23.5s-10.517 23.5-23.5 23.5Z"></path></svg>
